<svg width="30" height="30" viewBox="0 0 30 30" fill="none" xmlns="http://www.w3.org/2000/svg">
<g clip-path="url(#clip0_66_27)">
<path d="M26.8812 0H3.11869C2.52218 0 2.03857 0.483604 2.03857 1.08012V22.5576C2.03857 23.1541 2.52218 23.6377 3.11869 23.6377H8.4258L5.33624 28.3254C5.00796 28.8235 5.14564 29.4934 5.64371 29.8216C5.82683 29.9423 6.03313 30.0001 6.23713 30.0001C6.58809 30.0001 6.93236 29.8292 7.13996 29.5142L11.0131 23.6378H18.987L22.8601 29.5142C23.0677 29.8292 23.412 30.0001 23.763 30.0001C23.967 30.0001 24.1733 29.9423 24.3564 29.8216C24.8545 29.4934 24.9922 28.8235 24.6639 28.3254L21.5743 23.6377H26.8815C27.478 23.6377 27.9616 23.1541 27.9616 22.5576V1.08012C27.9614 0.483604 27.4778 0 26.8812 0ZM25.8011 21.4775H4.19881V2.16023H25.8011V21.4775Z" fill="#282828"/>
<path d="M7.32111 17.9485C7.44539 18.0334 7.58667 18.074 7.72658 18.074C7.95643 18.074 8.18246 17.9641 8.32187 17.76L11.8554 12.5859L15.1298 15.9815C15.2756 16.1327 15.4804 16.2122 15.6897 16.2006C15.8994 16.1884 16.0933 16.0854 16.2207 15.9184L22.7014 7.42147C22.9426 7.10521 22.8818 6.65344 22.5655 6.41221C22.2493 6.17091 21.7974 6.23183 21.5562 6.54809L15.5842 14.3781L12.278 10.9494C12.1276 10.7935 11.9152 10.7142 11.6992 10.7317C11.4833 10.75 11.2871 10.8643 11.165 11.0432L7.13259 16.9478C6.90829 17.2762 6.99275 17.7243 7.32111 17.9485Z" fill="#282828"/>
</g>
<defs>
<clipPath id="clip0_66_27">
<rect width="30" height="30" fill="white"/>
</clipPath>
</defs>
</svg>
