<svg width="30" height="30" viewBox="0 0 30 30" fill="none" xmlns="http://www.w3.org/2000/svg">
<path d="M26.1818 0H3.90909C2.92918 0 2.04541 0.775636 2.04541 1.75568V28.2443C2.04541 29.2244 2.92918 30 3.90909 30H19.9905C20.8423 30 22.0115 29.5711 22.6524 29.0099L26.79 25.3891C27.4444 24.8161 27.9545 23.6911 27.9545 22.8213V1.75568C27.9545 0.775636 27.1618 0 26.1818 0ZM10.0909 21.2727H5.99996V11.7273H10.0909V21.2727ZM17.0454 21.2727H12.9545V4.5H17.0454V21.2727ZM19.909 21.2727V8.31818H24V21.2727H19.909ZM20.0569 28.3615L20.0655 23.3865L25.7708 23.4161L20.0569 28.3615Z" fill="#282828"/>
</svg>
