<svg width="30" height="30" viewBox="0 0 30 30" fill="none" xmlns="http://www.w3.org/2000/svg">
<g clip-path="url(#clip0_70_215)">
<path d="M3.90644 24.5872V3.2783H21.1162V21.1743L24.3952 18.466V1.63915C24.3952 0.734043 23.6618 0 22.7567 0H2.26729C1.36219 0 0.628784 0.734043 0.628784 1.63915V26.2257C0.628784 27.1309 1.36219 27.8649 2.26729 27.8649H16.5703L14.2533 24.5872H3.90644Z" fill="#282828"/>
<path d="M29.1147 17.6228C28.8128 17.3381 28.3488 17.3247 28.0309 17.5864L20.513 23.7996L15.503 20.7938C15.1705 20.5947 14.7447 20.654 14.4798 20.94C14.2169 21.2234 14.1881 21.653 14.4122 21.9696L19.8415 29.6528C19.9935 29.8679 20.2405 29.9968 20.5035 29.9994C20.506 29.9994 20.5086 29.9994 20.5111 29.9994C20.7715 29.9994 21.0173 29.8762 21.1718 29.6643L29.2143 18.7028C29.4569 18.3702 29.4154 17.9075 29.1147 17.6228Z" fill="#282828"/>
<path d="M17.4294 5.73701H7.59383C6.68873 5.73701 5.95532 6.47106 5.95532 7.37616C5.95532 8.28127 6.68873 9.01531 7.59383 9.01531H17.4287C18.3338 9.01531 19.0666 8.28127 19.0666 7.37616C19.0666 6.47106 18.3345 5.73701 17.4294 5.73701Z" fill="#282828"/>
<path d="M17.4294 10.6538H7.59383C6.68873 10.6538 5.95532 11.3879 5.95532 12.293C5.95532 13.1981 6.68873 13.9321 7.59383 13.9321H17.4287C18.3338 13.9321 19.0666 13.1987 19.0666 12.293C19.0685 11.3879 18.3345 10.6538 17.4294 10.6538Z" fill="#282828"/>
<path d="M17.4294 15.5713H7.59383C6.68873 15.5713 5.95532 16.3053 5.95532 17.2104C5.95532 18.1155 6.68873 18.8496 7.59383 18.8496H17.4287C18.3338 18.8496 19.0666 18.1155 19.0666 17.2104C19.0685 16.3053 18.3345 15.5713 17.4294 15.5713Z" fill="#282828"/>
</g>
<defs>
<clipPath id="clip0_70_215">
<rect width="30" height="30" fill="white"/>
</clipPath>
</defs>
</svg>
