<svg width="30" height="30" viewBox="0 0 30 30" fill="none" xmlns="http://www.w3.org/2000/svg">
<mask id="path-1-inside-1_68_34" fill="white">
<path d="M15.9972 22.83C15.87 22.83 15.7479 22.7795 15.6579 22.6896L7.31132 14.3421C7.22137 14.2521 7.17084 14.1301 7.17084 14.0028C7.17084 13.8756 7.22137 13.7535 7.31132 13.6635L9.54721 11.4273C10.1293 10.8454 10.9183 10.5178 11.7414 10.5163C12.5645 10.5147 13.3547 10.8394 13.9389 11.4192L18.6534 6.705C18.5051 5.98342 18.5379 5.23633 18.749 4.53056C18.9601 3.82479 19.3429 3.18234 19.863 2.6607C19.9076 2.61612 19.9605 2.58075 20.0188 2.55662C20.077 2.53249 20.1394 2.52007 20.2025 2.52007C20.2655 2.52007 20.3279 2.53249 20.3862 2.55662C20.4444 2.58075 20.4973 2.61612 20.5419 2.6607L27.3396 9.4584C27.3842 9.50297 27.4196 9.55589 27.4437 9.61414C27.4678 9.67238 27.4802 9.73481 27.4802 9.79785C27.4802 9.86089 27.4678 9.92332 27.4437 9.98156C27.4196 10.0398 27.3842 10.0927 27.3396 10.1373C26.8184 10.6581 26.176 11.0412 25.4701 11.2523C24.7641 11.4633 24.0169 11.4958 23.2953 11.3466L18.5808 16.0611C19.1608 16.6452 19.4856 17.4354 19.4841 18.2586C19.4826 19.0818 19.1549 19.8708 18.5727 20.4528L16.3368 22.689C16.2923 22.7337 16.2393 22.7691 16.1811 22.7933C16.1228 22.8175 16.0603 22.83 15.9972 22.83ZM8.32951 14.0028L15.9972 21.6708L17.8938 19.7742C18.2966 19.3704 18.5229 18.8234 18.5229 18.253C18.5229 17.6827 18.2966 17.1357 17.8938 16.7319L17.5638 16.4004C17.4739 16.3104 17.4233 16.1884 17.4233 16.0611C17.4233 15.9339 17.4739 15.8118 17.5638 15.7218L22.8063 10.4781C22.8662 10.4182 22.9409 10.3752 23.0228 10.3535C23.1046 10.3318 23.1908 10.3321 23.2725 10.3545C23.5738 10.437 23.8848 10.4788 24.1971 10.4787C24.9554 10.4806 25.6933 10.2332 26.2971 9.7746L20.226 3.7023C19.9048 4.12879 19.6854 4.62318 19.5848 5.14755C19.4842 5.67193 19.5049 6.21239 19.6455 6.7275C19.6679 6.8092 19.6682 6.89537 19.6465 6.97725C19.6248 7.05913 19.5818 7.13381 19.5219 7.1937L14.28 12.4374C14.2354 12.482 14.1825 12.5174 14.1243 12.5415C14.066 12.5656 14.0036 12.578 13.9406 12.578C13.8775 12.578 13.8151 12.5656 13.7569 12.5415C13.6986 12.5174 13.6457 12.482 13.6011 12.4374L13.2711 12.1074C12.8674 11.7046 12.3203 11.4783 11.75 11.4783C11.1796 11.4783 10.6326 11.7046 10.2288 12.1074L8.32951 14.0028Z"/>
</mask>
<path d="M15.9972 22.83C15.87 22.83 15.7479 22.7795 15.6579 22.6896L7.31132 14.3421C7.22137 14.2521 7.17084 14.1301 7.17084 14.0028C7.17084 13.8756 7.22137 13.7535 7.31132 13.6635L9.54721 11.4273C10.1293 10.8454 10.9183 10.5178 11.7414 10.5163C12.5645 10.5147 13.3547 10.8394 13.9389 11.4192L18.6534 6.705C18.5051 5.98342 18.5379 5.23633 18.749 4.53056C18.9601 3.82479 19.3429 3.18234 19.863 2.6607C19.9076 2.61612 19.9605 2.58075 20.0188 2.55662C20.077 2.53249 20.1394 2.52007 20.2025 2.52007C20.2655 2.52007 20.3279 2.53249 20.3862 2.55662C20.4444 2.58075 20.4973 2.61612 20.5419 2.6607L27.3396 9.4584C27.3842 9.50297 27.4196 9.55589 27.4437 9.61414C27.4678 9.67238 27.4802 9.73481 27.4802 9.79785C27.4802 9.86089 27.4678 9.92332 27.4437 9.98156C27.4196 10.0398 27.3842 10.0927 27.3396 10.1373C26.8184 10.6581 26.176 11.0412 25.4701 11.2523C24.7641 11.4633 24.0169 11.4958 23.2953 11.3466L18.5808 16.0611C19.1608 16.6452 19.4856 17.4354 19.4841 18.2586C19.4826 19.0818 19.1549 19.8708 18.5727 20.4528L16.3368 22.689C16.2923 22.7337 16.2393 22.7691 16.1811 22.7933C16.1228 22.8175 16.0603 22.83 15.9972 22.83ZM8.32951 14.0028L15.9972 21.6708L17.8938 19.7742C18.2966 19.3704 18.5229 18.8234 18.5229 18.253C18.5229 17.6827 18.2966 17.1357 17.8938 16.7319L17.5638 16.4004C17.4739 16.3104 17.4233 16.1884 17.4233 16.0611C17.4233 15.9339 17.4739 15.8118 17.5638 15.7218L22.8063 10.4781C22.8662 10.4182 22.9409 10.3752 23.0228 10.3535C23.1046 10.3318 23.1908 10.3321 23.2725 10.3545C23.5738 10.437 23.8848 10.4788 24.1971 10.4787C24.9554 10.4806 25.6933 10.2332 26.2971 9.7746L20.226 3.7023C19.9048 4.12879 19.6854 4.62318 19.5848 5.14755C19.4842 5.67193 19.5049 6.21239 19.6455 6.7275C19.6679 6.8092 19.6682 6.89537 19.6465 6.97725C19.6248 7.05913 19.5818 7.13381 19.5219 7.1937L14.28 12.4374C14.2354 12.482 14.1825 12.5174 14.1243 12.5415C14.066 12.5656 14.0036 12.578 13.9406 12.578C13.8775 12.578 13.8151 12.5656 13.7569 12.5415C13.6986 12.5174 13.6457 12.482 13.6011 12.4374L13.2711 12.1074C12.8674 11.7046 12.3203 11.4783 11.75 11.4783C11.1796 11.4783 10.6326 11.7046 10.2288 12.1074L8.32951 14.0028Z" fill="#282828"/>
<path d="M15.9972 22.83L15.9974 23.83H15.9977L15.9972 22.83ZM15.6579 22.6896L14.9508 23.3967L14.9512 23.3971L15.6579 22.6896ZM7.31132 14.3421L6.60398 15.049L6.60417 15.0492L7.31132 14.3421ZM7.17084 14.0028H6.17084H7.17084ZM7.31132 13.6635L6.60416 12.9564L6.60398 12.9566L7.31132 13.6635ZM9.54721 11.4273L8.84021 10.7201L8.84006 10.7202L9.54721 11.4273ZM13.9389 11.4192L13.2345 12.129L13.9416 12.8307L14.646 12.1263L13.9389 11.4192ZM18.6534 6.705L19.3605 7.41213L19.7414 7.03126L19.6329 6.50365L18.6534 6.705ZM19.863 2.6607L19.1558 1.95367L19.1549 1.9546L19.863 2.6607ZM20.2025 2.52007V3.52007V2.52007ZM20.5419 2.6607L19.8347 3.36773L19.8348 3.36781L20.5419 2.6607ZM27.3396 9.4584L26.6325 10.1655L26.6326 10.1656L27.3396 9.4584ZM27.3396 10.1373L28.0464 10.8447L28.0466 10.8445L27.3396 10.1373ZM23.2953 11.3466L23.4977 10.3673L22.9696 10.2581L22.5882 10.6395L23.2953 11.3466ZM18.5808 16.0611L17.8737 15.354L17.1691 16.0586L17.8712 16.7657L18.5808 16.0611ZM18.5727 20.4528L17.8657 19.7456L17.8656 19.7457L18.5727 20.4528ZM16.3368 22.689L15.6297 21.9819L15.6289 21.9827L16.3368 22.689ZM8.32951 14.0028L7.62313 13.295L6.91459 14.0021L7.62239 14.7099L8.32951 14.0028ZM15.9972 21.6708L15.2901 22.3779L15.9972 23.085L16.7043 22.3779L15.9972 21.6708ZM17.8938 19.7742L18.6009 20.4813L18.6017 20.4805L17.8938 19.7742ZM18.5229 18.253H17.5229H18.5229ZM17.8938 16.7319L17.1851 17.4374L17.1859 17.4382L17.8938 16.7319ZM17.5638 16.4004L18.2725 15.6949L18.2712 15.6935L17.5638 16.4004ZM17.4233 16.0611H18.4233H17.4233ZM17.5638 15.7218L16.8566 15.0148L16.8565 15.0149L17.5638 15.7218ZM22.8063 10.4781L23.5135 11.1851L23.5135 11.1851L22.8063 10.4781ZM23.2725 10.3545L23.5366 9.39001L23.5366 9.38999L23.2725 10.3545ZM24.1971 10.4787L24.1996 9.4787L24.1969 9.4787L24.1971 10.4787ZM26.2971 9.7746L26.9019 10.571L27.8145 9.87792L27.0043 9.06756L26.2971 9.7746ZM20.226 3.7023L20.9332 2.99526L20.1196 2.1815L19.4273 3.10065L20.226 3.7023ZM19.6455 6.7275L18.6808 6.99076L18.681 6.99155L19.6455 6.7275ZM19.5219 7.1937L18.8149 6.4865L18.8147 6.48671L19.5219 7.1937ZM14.28 12.4374L14.9872 13.1444L14.9872 13.1444L14.28 12.4374ZM13.6011 12.4374L14.3083 11.7304L14.3082 11.7303L13.6011 12.4374ZM13.2711 12.1074L13.9782 11.4003L13.9774 11.3995L13.2711 12.1074ZM10.2288 12.1074L9.52252 11.3995L9.52243 11.3996L10.2288 12.1074ZM15.9971 21.83C16.1349 21.83 16.2671 21.8847 16.3646 21.9821L14.9512 23.3971C15.2288 23.6744 15.6051 23.8301 15.9974 23.83L15.9971 21.83ZM16.3651 21.9825L8.01846 13.635L6.60417 15.0492L14.9508 23.3967L16.3651 21.9825ZM8.01865 13.6352C8.1161 13.7327 8.17084 13.8649 8.17084 14.0028H6.17084C6.17084 14.3952 6.32663 14.7715 6.60398 15.049L8.01865 13.6352ZM8.17084 14.0028C8.17084 14.1407 8.1161 14.2729 8.01865 14.3704L6.60398 12.9566C6.32663 13.2342 6.17084 13.6104 6.17084 14.0028H8.17084ZM8.01847 14.3706L10.2544 12.1344L8.84006 10.7202L6.60416 12.9564L8.01847 14.3706ZM10.2542 12.1345C10.6492 11.7396 11.1847 11.5173 11.7432 11.5163L11.7395 9.51626C10.6519 9.51826 9.60939 9.95113 8.84021 10.7201L10.2542 12.1345ZM11.7432 11.5163C12.3018 11.5152 12.838 11.7356 13.2345 12.129L14.6433 10.7094C13.8713 9.94327 12.8272 9.51425 11.7395 9.51626L11.7432 11.5163ZM14.646 12.1263L19.3605 7.41213L17.9463 5.99787L13.2318 10.7121L14.646 12.1263ZM19.6329 6.50365C19.5179 5.94398 19.5434 5.36452 19.7071 4.8171L17.791 4.24401C17.5325 5.10815 17.4923 6.02287 17.6739 6.90635L19.6329 6.50365ZM19.7071 4.8171C19.8708 4.26969 20.1677 3.7714 20.5711 3.3668L19.1549 1.9546C18.518 2.59329 18.0494 3.37988 17.791 4.24401L19.7071 4.8171ZM20.5702 3.36773C20.5219 3.41603 20.4646 3.45434 20.4015 3.48048L19.636 1.63276C19.4564 1.70716 19.2933 1.81621 19.1558 1.95367L20.5702 3.36773ZM20.4015 3.48048C20.3384 3.50662 20.2708 3.52007 20.2025 3.52007V1.52007C20.0081 1.52007 19.8156 1.55837 19.636 1.63276L20.4015 3.48048ZM20.2025 3.52007C20.1342 3.52007 20.0665 3.50662 20.0034 3.48048L20.7689 1.63276C20.5893 1.55837 20.3968 1.52007 20.2025 1.52007V3.52007ZM20.0034 3.48048C19.9403 3.45434 19.883 3.41603 19.8347 3.36773L21.2491 1.95367C21.1117 1.81621 20.9485 1.70716 20.7689 1.63276L20.0034 3.48048ZM19.8348 3.36781L26.6325 10.1655L28.0467 8.75129L21.249 1.95359L19.8348 3.36781ZM26.6326 10.1656C26.5843 10.1173 26.546 10.06 26.5198 9.99687L28.3676 9.2314C28.2932 9.05182 28.1841 8.88865 28.0466 8.75121L26.6326 10.1656ZM26.5198 9.99687C26.4937 9.93377 26.4802 9.86614 26.4802 9.79785H28.4802C28.4802 9.60347 28.442 9.41099 28.3676 9.2314L26.5198 9.99687ZM26.4802 9.79785C26.4802 9.72956 26.4937 9.66193 26.5198 9.59883L28.3676 10.3643C28.442 10.1847 28.4802 9.99223 28.4802 9.79785H26.4802ZM26.5198 9.59883C26.546 9.53573 26.5843 9.4784 26.6326 9.43011L28.0466 10.8445C28.1841 10.7071 28.2932 10.5439 28.3676 10.3643L26.5198 9.59883ZM26.6328 9.42987C26.2288 9.83356 25.7308 10.1305 25.1836 10.2942L25.7565 12.2103C26.6211 11.9518 27.408 11.4826 28.0464 10.8447L26.6328 9.42987ZM25.1836 10.2942C24.6364 10.4578 24.0571 10.4829 23.4977 10.3673L23.0929 12.3259C23.9766 12.5086 24.8919 12.4689 25.7565 12.2103L25.1836 10.2942ZM22.5882 10.6395L17.8737 15.354L19.2879 16.7682L24.0024 12.0537L22.5882 10.6395ZM17.8712 16.7657C18.2648 17.162 18.4852 17.6982 18.4841 18.2568L20.4841 18.2605C20.4861 17.1727 20.0569 16.1284 19.2904 15.3565L17.8712 16.7657ZM18.4841 18.2568C18.4831 18.8153 18.2607 19.3507 17.8657 19.7456L19.2797 21.16C20.049 20.3909 20.4821 19.3483 20.4841 18.2605L18.4841 18.2568ZM17.8656 19.7457L15.6297 21.9819L17.044 23.3961L19.2799 21.1599L17.8656 19.7457ZM15.6289 21.9827C15.6771 21.9344 15.7345 21.896 15.7976 21.8697L16.5645 23.7169C16.7442 23.6423 16.9074 23.533 17.0448 23.3953L15.6289 21.9827ZM15.7976 21.8697C15.8607 21.8435 15.9284 21.83 15.9968 21.83L15.9977 23.83C16.1922 23.8299 16.3848 23.7915 16.5645 23.7169L15.7976 21.8697ZM7.62239 14.7099L15.2901 22.3779L16.7043 20.9637L9.03664 13.2957L7.62239 14.7099ZM16.7043 22.3779L18.6009 20.4813L17.1867 19.0671L15.2901 20.9637L16.7043 22.3779ZM18.6017 20.4805C19.1916 19.8893 19.5229 19.0882 19.5229 18.253H17.5229C17.5229 18.5586 17.4017 18.8516 17.1859 19.0679L18.6017 20.4805ZM19.5229 18.253C19.5229 17.4179 19.1916 16.6168 18.6017 16.0256L17.1859 17.4382C17.4017 17.6545 17.5229 17.9475 17.5229 18.253H19.5229ZM18.6025 16.0264L18.2725 15.6949L16.8551 17.1059L17.1851 17.4374L18.6025 16.0264ZM18.2712 15.6935C18.3686 15.791 18.4233 15.9232 18.4233 16.0611H16.4233C16.4233 16.4535 16.5791 16.8298 16.8565 17.1073L18.2712 15.6935ZM18.4233 16.0611C18.4233 16.199 18.3686 16.3312 18.2712 16.4287L16.8565 15.0149C16.5791 15.2924 16.4233 15.6687 16.4233 16.0611H18.4233ZM18.271 16.4288L23.5135 11.1851L22.0991 9.77107L16.8566 15.0148L18.271 16.4288ZM23.5135 11.1851C23.4486 11.25 23.3677 11.2966 23.279 11.3201L22.7665 9.38689C22.514 9.45382 22.2838 9.58638 22.0991 9.77109L23.5135 11.1851ZM23.279 11.3201C23.1903 11.3436 23.097 11.3432 23.0085 11.319L23.5366 9.38999C23.2846 9.32103 23.019 9.31995 22.7665 9.38689L23.279 11.3201ZM23.0084 11.319C23.3958 11.4251 23.7957 11.4788 24.1974 11.4787L24.1969 9.4787C23.9738 9.47875 23.7518 9.44893 23.5366 9.39001L23.0084 11.319ZM24.1946 11.4787C25.1722 11.4812 26.1234 11.1622 26.9019 10.571L25.6923 8.97823C25.2631 9.30421 24.7386 9.48006 24.1996 9.4787L24.1946 11.4787ZM27.0043 9.06756L20.9332 2.99526L19.5188 4.40934L25.5899 10.4816L27.0043 9.06756ZM19.4273 3.10065C19.0142 3.64908 18.7321 4.2848 18.6027 4.9591L20.5669 5.336C20.6387 4.96155 20.7954 4.60851 21.0248 4.30395L19.4273 3.10065ZM18.6027 4.9591C18.4733 5.6334 18.5 6.32838 18.6808 6.99076L20.6102 6.46424C20.5099 6.0964 20.495 5.71046 20.5669 5.336L18.6027 4.9591ZM18.681 6.99155C18.6568 6.90304 18.6564 6.8097 18.6799 6.72098L20.6131 7.23352C20.6801 6.98105 20.679 6.71536 20.61 6.46345L18.681 6.99155ZM18.6799 6.72098C18.7034 6.63227 18.75 6.55137 18.8149 6.4865L20.2289 7.9009C20.4136 7.71625 20.5462 7.486 20.6131 7.23352L18.6799 6.72098ZM18.8147 6.48671L13.5728 11.7304L14.9872 13.1444L20.2291 7.90069L18.8147 6.48671ZM13.5728 11.7304C13.6211 11.6821 13.6784 11.6438 13.7415 11.6176L14.507 13.4653C14.6866 13.3909 14.8498 13.2819 14.9872 13.1444L13.5728 11.7304ZM13.7415 11.6176C13.8046 11.5915 13.8723 11.578 13.9406 11.578V13.578C14.1349 13.578 14.3274 13.5397 14.507 13.4653L13.7415 11.6176ZM13.9406 11.578C14.0089 11.578 14.0765 11.5915 14.1396 11.6176L13.3741 13.4653C13.5537 13.5397 13.7462 13.578 13.9406 13.578V11.578ZM14.1396 11.6176C14.2027 11.6438 14.26 11.6821 14.3083 11.7304L12.8939 13.1444C13.0314 13.2819 13.1945 13.3909 13.3741 13.4653L14.1396 11.6176ZM14.3082 11.7303L13.9782 11.4003L12.564 12.8145L12.894 13.1445L14.3082 11.7303ZM13.9774 11.3995C13.3862 10.8096 12.5851 10.4783 11.75 10.4783V12.4783C12.0555 12.4783 12.3485 12.5995 12.5648 12.8153L13.9774 11.3995ZM11.75 10.4783C10.9148 10.4783 10.1137 10.8096 9.52252 11.3995L10.9351 12.8153C11.1514 12.5995 11.4444 12.4783 11.75 12.4783V10.4783ZM9.52243 11.3996L7.62313 13.295L9.03589 14.7106L10.9352 12.8152L9.52243 11.3996Z" fill="#282828" mask="url(#path-1-inside-1_68_34)"/>
<path d="M3 27.48C2.92884 27.48 2.85857 27.4642 2.79428 27.4337C2.72999 27.4032 2.67328 27.3588 2.62826 27.3037C2.58324 27.2486 2.55103 27.1842 2.53397 27.1151C2.5169 27.046 2.51541 26.974 2.5296 26.9043L3.18 23.7153C3.19876 23.623 3.24425 23.5383 3.3108 23.4717L10.2144 16.5666C10.3044 16.4766 10.4265 16.426 10.5538 16.426C10.6812 16.426 10.8033 16.4766 10.8933 16.5666C10.9833 16.6566 11.0339 16.7787 11.0339 16.906C11.0339 17.0334 10.9833 17.1555 10.8933 17.2455L4.0905 24.0483L3.615 26.385L5.952 25.9098L12.7548 19.107C12.8455 19.0208 12.9664 18.9734 13.0916 18.975C13.2167 18.9766 13.3363 19.0271 13.4248 19.1156C13.5133 19.2041 13.5638 19.3237 13.5654 19.4488C13.567 19.574 13.5196 19.6948 13.4334 19.7856L6.5286 26.6907C6.46194 26.7574 6.37711 26.803 6.2847 26.8218L3.0957 27.4704C3.06418 27.4767 3.03213 27.4799 3 27.48Z" fill="#282828"/>
</svg>
