<svg width="40" height="40" viewBox="0 0 40 40" fill="none" xmlns="http://www.w3.org/2000/svg">
<g clip-path="url(#clip0_65_38)">
<path d="M20 40C31.0457 40 40 31.0457 40 20C40 8.95431 31.0457 0 20 0C8.95431 0 0 8.95431 0 20C0 31.0457 8.95431 40 20 40Z" fill="#54C0EB"/>
<path d="M26.1417 32.3465C26.0157 32.315 25.8897 32.2835 25.7637 32.252H25.7322C25.6377 32.3465 25.4803 32.378 25.3228 32.3465C25.0708 32.2835 24.9133 32.0315 24.9763 31.7795C25.0393 31.5276 25.2913 31.3701 25.5433 31.4331C25.7007 31.4646 25.7952 31.5906 25.8582 31.7165H25.8897C26.0157 31.748 26.1417 31.7795 26.2677 31.811L26.6141 30.3622C26.5196 30.3307 26.4251 30.2992 26.3307 30.2677C26.2992 30.2677 26.2362 30.2362 26.2047 30.2047C26.1102 30.2992 25.9527 30.3307 25.7952 30.2992C25.5433 30.2362 25.3858 29.9843 25.4488 29.7323C25.5118 29.4803 25.7637 29.3228 26.0157 29.3858C26.1732 29.4173 26.2992 29.5433 26.3307 29.7008C26.3622 29.7008 26.3937 29.7008 26.4251 29.7008C26.5196 29.7323 26.6141 29.7638 26.7086 29.7953L27.0866 28.315C26.9921 28.2835 26.8661 28.252 26.7716 28.252C26.7401 28.252 26.6771 28.2205 26.6456 28.2205C26.5511 28.2835 26.3937 28.315 26.2677 28.2835C26.0157 28.2205 25.8582 27.9685 25.9212 27.7165C25.9842 27.4646 26.2362 27.3071 26.4881 27.3701C26.6456 27.4016 26.7716 27.5276 26.8031 27.685C26.9291 27.7165 27.0551 27.7165 27.1811 27.748L27.5275 26.3622C27.37 26.2992 27.244 26.2677 27.0866 26.2362C26.9921 26.2992 26.8661 26.2992 26.7401 26.2677C26.4881 26.2047 26.3307 25.9528 26.3937 25.7008C26.4566 25.4488 26.7086 25.2913 26.9606 25.3543C27.1496 25.3858 27.244 25.5433 27.307 25.7008C27.433 25.7323 27.559 25.7638 27.685 25.8268L28.0314 24.4409C27.874 24.378 27.7165 24.315 27.559 24.252C27.4645 24.2835 27.37 24.315 27.244 24.2835C26.9921 24.2205 26.8346 23.9685 26.8976 23.7165C26.9606 23.4646 27.2125 23.3071 27.4645 23.3701C27.6535 23.4016 27.7795 23.5591 27.811 23.748C27.937 23.7795 28.0314 23.8425 28.1574 23.874L28.5354 22.3307C28.4094 22.2992 28.2834 22.2677 28.1574 22.2362C28.1259 22.2362 28.1259 22.2362 28.1259 22.2047C28.0314 22.2677 27.874 22.2992 27.748 22.2677C27.496 22.2047 27.3385 21.9528 27.4015 21.7008C27.4645 21.4488 27.7165 21.2913 27.9685 21.3543C28.1259 21.3858 28.2519 21.5118 28.2834 21.6693C28.4094 21.7008 28.5354 21.7323 28.6614 21.7638L29.0393 20.252C28.9133 20.189 28.7874 20.1575 28.6614 20.126C28.5354 20.2205 28.3779 20.2835 28.2204 20.252C27.9685 20.189 27.811 19.937 27.874 19.685C27.937 19.4331 28.1889 19.2756 28.4409 19.3386C28.5669 19.3701 28.6614 19.4646 28.7244 19.5591C28.8818 19.5906 29.0078 19.6535 29.1653 19.685L29.5118 18.2992C29.3543 18.2677 29.1968 18.2362 29.0078 18.1732C28.9133 18.2047 28.8188 18.2362 28.6929 18.2047C28.4409 18.1417 28.2834 17.8898 28.3464 17.6378C28.4094 17.3858 28.6614 17.2283 28.9133 17.2913C29.1023 17.3228 29.2283 17.4803 29.2598 17.6378C29.3858 17.6693 29.5118 17.7008 29.6377 17.7323L29.9842 16.2835C29.8267 16.252 29.6692 16.189 29.5118 16.1575C29.4173 16.2205 29.2913 16.2205 29.1968 16.189C28.9448 16.126 28.7874 15.874 28.8503 15.622C28.9133 15.3701 29.1653 15.2126 29.4173 15.2756C29.6062 15.3071 29.7007 15.4646 29.7637 15.622C29.8897 15.6535 30.0157 15.685 30.1417 15.7165L30.5196 14.2047C30.3937 14.1417 30.2677 14.0787 30.1417 14.0157C30.0157 14.1417 29.8582 14.2047 29.7007 14.1417C29.4488 14.0787 29.2913 13.8268 29.3543 13.5748C29.4173 13.3228 29.6692 13.1654 29.9212 13.2283C30.0157 13.2598 30.1102 13.3228 30.1732 13.4173C30.2047 13.4173 30.2362 13.4173 30.2362 13.4488C30.3622 13.5118 30.4881 13.5748 30.6141 13.6378L30.9606 12.189C30.8031 12.1575 30.6771 12.126 30.5196 12.063C30.4251 12.126 30.2992 12.1575 30.1417 12.126C29.8897 12.063 29.7322 11.811 29.7952 11.5591C29.8582 11.3071 30.1102 11.1496 30.3622 11.2126C30.4566 11.2441 30.5511 11.3071 30.6141 11.3701C30.6456 11.3701 30.6456 11.3701 30.6771 11.3701C30.8346 11.4016 30.9921 11.4646 31.1181 11.4961L31.4645 10.1417L14.5826 6.20473L8.81885 29.6063L25.7952 33.7953L26.1417 32.3465Z" fill="#E6E9EE"/>
<path d="M28.7857 12.7717L14.9644 9.36515L14.9342 9.48747L28.7555 12.894L28.7857 12.7717Z" fill="#CED5E0"/>
<path d="M28.4393 14.1085L14.6179 10.7019L14.5878 10.8242L28.4091 14.2308L28.4393 14.1085Z" fill="#CED5E0"/>
<path d="M28.1202 15.4528L14.2988 12.0462L14.2687 12.1685L28.09 15.5751L28.1202 15.4528Z" fill="#CED5E0"/>
<path d="M27.7662 16.8202L13.9448 13.4136L13.9147 13.5359L27.736 16.9425L27.7662 16.8202Z" fill="#CED5E0"/>
<path d="M27.4504 18.1613L13.629 14.7547L13.5989 14.877L27.4202 18.2836L27.4504 18.1613Z" fill="#CED5E0"/>
<path d="M27.1038 19.4981L13.2825 16.0915L13.2523 16.2138L27.0737 19.6204L27.1038 19.4981Z" fill="#CED5E0"/>
<path d="M26.788 20.8423L12.9667 17.4358L12.9365 17.5581L26.7579 20.9647L26.788 20.8423Z" fill="#CED5E0"/>
<path d="M26.434 22.2098L12.6127 18.8032L12.5825 18.9255L26.4039 22.3321L26.434 22.2098Z" fill="#CED5E0"/>
<path d="M26.1149 23.5541L12.2936 20.1475L12.2634 20.2698L26.0848 23.6764L26.1149 23.5541Z" fill="#CED5E0"/>
<path d="M25.7991 24.8952L11.9778 21.4886L11.9476 21.6109L25.769 25.0175L25.7991 24.8952Z" fill="#CED5E0"/>
<path d="M25.4526 26.232L11.6312 22.8254L11.6011 22.9477L25.4224 26.3543L25.4526 26.232Z" fill="#CED5E0"/>
<path d="M25.1366 27.5763L11.3153 24.1697L11.2852 24.2921L25.1065 27.6986L25.1366 27.5763Z" fill="#CED5E0"/>
<path d="M24.7826 28.9437L10.9613 25.5371L10.9312 25.6594L24.7525 29.066L24.7826 28.9437Z" fill="#CED5E0"/>
<path d="M24.4637 30.288L10.6423 26.8814L10.6122 27.0037L24.4335 30.4103L24.4637 30.288Z" fill="#CED5E0"/>
<path d="M24.1172 31.6216L10.2959 28.215L10.2658 28.3373L24.0871 31.7439L24.1172 31.6216Z" fill="#CED5E0"/>
<path d="M29.0607 11.5394L29.0908 11.4171L15.2692 8.00898L15.239 8.1313L29.0607 11.5394Z" fill="#CED5E0"/>
<path d="M25.9212 29.7638C25.7952 29.7638 25.6693 29.7638 25.5118 29.7638H25.4803C25.3858 29.8898 25.2598 29.9528 25.1023 29.9528C24.8504 29.9528 24.6299 29.7323 24.6299 29.4803C24.6299 29.2283 24.8504 29.0079 25.1023 29.0079C25.2598 29.0079 25.3858 29.1024 25.4803 29.1969H25.5118C25.6378 29.1969 25.7638 29.1969 25.9212 29.1969V27.7165C25.8267 27.7165 25.7323 27.7165 25.6378 27.7165C25.5748 27.7165 25.5433 27.7165 25.5118 27.685C25.4173 27.811 25.2913 27.874 25.1338 27.874C24.8819 27.874 24.6614 27.6535 24.6614 27.4016C24.6614 27.1496 24.8819 26.9291 25.1338 26.9291C25.2913 26.9291 25.4488 27.0236 25.5118 27.1496C25.5433 27.1496 25.5748 27.1181 25.6063 27.1181C25.7008 27.1181 25.7952 27.1181 25.8897 27.1181V25.6693C25.7952 25.6693 25.6693 25.6693 25.5748 25.7008C25.5433 25.7008 25.4803 25.7008 25.4488 25.7008C25.3543 25.7953 25.2283 25.8583 25.1023 25.8583C24.8504 25.8583 24.6299 25.6378 24.6299 25.3858C24.6299 25.1339 24.8504 24.9134 25.1023 24.9134C25.2598 24.9134 25.4173 25.0079 25.5118 25.1339C25.6378 25.1024 25.7638 25.1024 25.9212 25.1024V23.6535C25.7638 23.622 25.6063 23.622 25.4488 23.622C25.3543 23.685 25.2598 23.748 25.1338 23.748C24.8819 23.748 24.6614 23.5276 24.6614 23.2756C24.6614 23.0236 24.8819 22.8032 25.1338 22.8032C25.3228 22.8032 25.4803 22.8976 25.5433 23.0551C25.6693 23.0551 25.7952 23.0551 25.9212 23.0866V21.6378C25.7638 21.6063 25.5748 21.6063 25.4173 21.5748C25.3228 21.6378 25.2283 21.6693 25.1338 21.6693C24.8819 21.6693 24.6614 21.4488 24.6614 21.1969C24.6614 20.9449 24.8819 20.7244 25.1338 20.7244C25.3228 20.7244 25.4803 20.8504 25.5748 21.0079C25.7008 21.0079 25.8267 21.0394 25.9527 21.0394V19.4331C25.8267 19.4331 25.7008 19.4331 25.5433 19.4331C25.5118 19.4331 25.5118 19.4331 25.4803 19.4331C25.3858 19.5276 25.2598 19.5906 25.1338 19.5906C24.8819 19.5906 24.6614 19.3701 24.6614 19.1181C24.6614 18.8661 24.8819 18.6457 25.1338 18.6457C25.2913 18.6457 25.4488 18.7402 25.5118 18.8661C25.6378 18.8661 25.7638 18.8661 25.9212 18.8661V17.3228C25.7952 17.2913 25.6693 17.2913 25.5118 17.2913C25.4173 17.4173 25.2913 17.5118 25.1338 17.5118C24.8819 17.5118 24.6614 17.2913 24.6614 17.0394C24.6614 16.7874 24.8819 16.5669 25.1338 16.5669C25.2598 16.5669 25.3858 16.6299 25.4803 16.7244C25.6378 16.7244 25.7952 16.7244 25.9527 16.7559V15.3386C25.7952 15.3386 25.6063 15.3386 25.4488 15.3386C25.3543 15.4016 25.2598 15.4331 25.1653 15.4331C24.9134 15.4331 24.6929 15.2126 24.6929 14.9606C24.6929 14.7087 24.9134 14.4882 25.1653 14.4882C25.3543 14.4882 25.5118 14.5827 25.5748 14.7402C25.7008 14.7402 25.8267 14.7402 25.9527 14.7402V13.3858C25.7952 13.3858 25.6378 13.3543 25.4803 13.3543C25.3858 13.4173 25.2913 13.4803 25.1653 13.4803C24.9134 13.4803 24.6929 13.2598 24.6929 13.0079C24.6929 12.7559 24.9134 12.5354 25.1653 12.5354C25.3543 12.5354 25.5118 12.6299 25.5748 12.7874C25.7008 12.7874 25.8267 12.7874 25.9527 12.7874V11.2441C25.8267 11.2126 25.7008 11.1811 25.5433 11.1496C25.4488 11.2756 25.3228 11.3701 25.1338 11.3701C24.8819 11.3701 24.6614 11.1496 24.6614 10.8976C24.6614 10.6457 24.8819 10.4252 25.1338 10.4252C25.2598 10.4252 25.3543 10.4567 25.4173 10.5197C25.4488 10.5197 25.4803 10.5197 25.4803 10.5197C25.6063 10.5512 25.7638 10.5827 25.8897 10.6142V9.13386C25.7323 9.13386 25.5748 9.13386 25.4488 9.13386C25.3543 9.22835 25.2598 9.29134 25.1023 9.29134C24.8504 9.29134 24.6299 9.07087 24.6299 8.8189C24.6299 8.56693 24.8504 8.34646 25.1023 8.34646C25.1968 8.34646 25.2913 8.37795 25.3858 8.44095C25.4173 8.44095 25.4173 8.44095 25.4488 8.44095C25.6063 8.44095 25.7638 8.44095 25.9212 8.44095V7.05512H8.44092V31.1181H25.9212V29.7638Z" fill="white"/>
<path d="M23.811 8.72441H9.57483V8.8504H23.811V8.72441Z" fill="#E6E9EE"/>
<path d="M23.811 10.1102H9.57483V10.2362H23.811V10.1102Z" fill="#E6E9EE"/>
<path d="M23.811 11.4961H9.57483V11.622H23.811V11.4961Z" fill="#E6E9EE"/>
<path d="M23.811 12.8819H9.57483V13.0079H23.811V12.8819Z" fill="#E6E9EE"/>
<path d="M23.811 14.2992H9.57483V14.4252H23.811V14.2992Z" fill="#E6E9EE"/>
<path d="M23.811 15.685H9.57483V15.811H23.811V15.685Z" fill="#E6E9EE"/>
<path d="M23.811 17.0709H9.57483V17.1969H23.811V17.0709Z" fill="#E6E9EE"/>
<path d="M23.811 18.4567H9.57483V18.5827H23.811V18.4567Z" fill="#E6E9EE"/>
<path d="M23.811 19.8425H9.57483V19.9685H23.811V19.8425Z" fill="#E6E9EE"/>
<path d="M23.811 21.2283H9.57483V21.3543H23.811V21.2283Z" fill="#E6E9EE"/>
<path d="M23.811 22.6142H9.57483V22.7402H23.811V22.6142Z" fill="#E6E9EE"/>
<path d="M23.811 24H9.57483V24.126H23.811V24Z" fill="#E6E9EE"/>
<path d="M23.811 25.3858H9.57483V25.5118H23.811V25.3858Z" fill="#E6E9EE"/>
<path d="M23.811 26.7717H9.57483V26.8976H23.811V26.7717Z" fill="#E6E9EE"/>
<path d="M23.811 28.1575H9.57483V28.2835H23.811V28.1575Z" fill="#E6E9EE"/>
<path d="M23.811 29.5433H9.57483V29.6693H23.811V29.5433Z" fill="#E6E9EE"/>
</g>
<defs>
<clipPath id="clip0_65_38">
<rect width="40" height="40" fill="white"/>
</clipPath>
</defs>
</svg>
