<svg width="30" height="30" viewBox="0 0 30 30" fill="none" xmlns="http://www.w3.org/2000/svg">
<g clip-path="url(#clip0_65_81)">
<path d="M30 17.7835V11.5979H25.859C25.6131 10.7316 25.2651 9.90179 24.8187 9.11777L27.5749 6.36161L23.201 1.98773L20.4088 4.78002C19.5784 4.32526 18.6998 3.97992 17.7836 3.74802V0H11.598V3.92449C10.6979 4.20804 9.84167 4.60237 9.0394 5.10285L6.36167 2.42511L1.98779 6.79899L4.87744 9.68864C4.47835 10.4941 4.17928 11.3398 3.98363 12.2164H0V18.402H4.33627C4.61004 19.1896 4.96998 19.9421 5.41219 20.6513L2.42511 23.6383L6.79899 28.0122L9.99798 24.8132C10.7075 25.1647 11.4496 25.4389 12.2164 25.6332V30H18.402V25.4568C19.1573 25.2186 19.8834 24.9016 20.5728 24.5093L23.6383 27.5749L28.0122 23.201L24.9106 20.0994C25.313 19.3639 25.6303 18.5891 25.8589 17.7836H30V17.7835ZM25.3879 23.201L23.6383 24.9505L20.8314 22.1435L20.1992 22.562C19.2947 23.1609 18.3036 23.5949 17.2534 23.8523L16.5464 24.0255V28.1443H14.0722V24.1105L13.3094 23.9725C12.2452 23.7801 11.2301 23.4081 10.2924 22.8669L9.6759 22.5111L6.79905 25.3879L5.04953 23.6384L7.82431 20.8636L7.35934 20.2227C6.69885 19.3121 6.21179 18.3037 5.91186 17.2256L5.72282 16.5464H1.85567V14.0722H5.55346L5.67179 13.2816C5.84635 12.115 6.234 11.0052 6.82386 9.98313L7.17965 9.36662L4.61208 6.79905L6.36161 5.04953L8.82711 7.51503L9.46806 7.05006C10.4592 6.33105 11.5622 5.81938 12.7465 5.52922L13.4535 5.35596V1.85567H15.9278V5.27097L16.6905 5.40891C17.8922 5.62621 19.0251 6.06977 20.0579 6.7273L20.6859 7.12707L23.2009 4.61208L24.9504 6.36161L22.4527 8.85934L22.8712 9.4915C23.5247 10.4787 23.9806 11.5645 24.226 12.7188L24.3822 13.4536H28.1443V15.9278H24.3823L24.2261 16.6627C23.9926 17.7612 23.5678 18.7995 22.9634 19.7488L22.5637 20.3767L25.3879 23.201Z" fill="white"/>
<path d="M15 8.35052C11.504 8.35052 8.65979 11.1947 8.65979 14.6907C8.65979 18.1867 11.504 21.0309 15 21.0309C18.496 21.0309 21.3402 18.1867 21.3402 14.6907C21.3402 11.1947 18.496 8.35052 15 8.35052ZM15 19.1753C12.5272 19.1753 10.5155 17.1635 10.5155 14.6907C10.5155 12.2179 12.5272 10.2062 15 10.2062C17.4728 10.2062 19.4845 12.2179 19.4845 14.6907C19.4845 17.1635 17.4728 19.1753 15 19.1753Z" fill="white"/>
</g>
<defs>
<clipPath id="clip0_65_81">
<rect width="30" height="30" fill="white"/>
</clipPath>
</defs>
</svg>
